<svg xmlns="http://www.w3.org/2000/svg" width="506" height="1055" fill="none"><g clip-path="url(#a)"><path fill="#1F3268" d="M505.935 0v1055H.065V0z"/><path fill="#17264E" fill-rule="evenodd" stroke="#17264E" stroke-width=".698" d="M419.409-111.752C678.43-78.354 830.398 180.68 864.071 439.125c28.997 222.553-107.055 419.756-304.127 527.741C352.652 1080.45 89.1 1120.68-81.873 957.45c-172.857-165.029-146.075-429.951-44.754-646.061C-18.656 81.092 166.635-144.343 419.409-111.752Z" clip-rule="evenodd"/><path fill="#101934" fill-rule="evenodd" d="M672.028 761.137c-123.863 183.435-314.13 356.953-525.493 290.943C-59.3 987.8-96.205 736.181-98.153 520.607c-1.81-200.4 49.725-414.845 235.46-490.112 209.966-85.087 461.645-29.488 595.48 153.383 126.37 172.672 58.935 399.999-60.759 577.259Z" clip-rule="evenodd"/><mask id="b" width="900" height="1076" x="-99" y="-9" maskUnits="userSpaceOnUse" style="mask-type:alpha"><path fill="#101934" fill-rule="evenodd" d="M672.028 761.137c-123.863 183.435-314.13 356.953-525.493 290.943C-59.3 987.8-96.205 736.181-98.153 520.607c-1.81-200.4 49.725-414.845 235.46-490.112 209.966-85.087 461.645-29.488 595.48 153.383 126.37 172.672 58.935 399.999-60.759 577.259Z" clip-rule="evenodd"/></mask><g stroke="#fff" stroke-miterlimit="10" stroke-opacity=".15" stroke-width="1.395" mask="url(#b)"><path d="M174.311 641.695c-65.955-17.48-148.52 5.498-184.013 65.382-29.59 49.938-25.369 122.245-77.357 160.039-11.922 8.668-26.373 14.942-40.779 14.021-24.759-1.579-44.439-23.656-69.36-21.4-16.567 1.494-30.601 13.48-46.607 18.506-18.293 5.746-38.118 1.903-54.501-6.462-39.655-20.226-69.278-49.731-117.247-55.108-33.415-3.743-71.953 8.372-89.733 37.374-12.043 19.645-13.83 45.123-31.164 60.685-5.728 5.15-12.785 8.779-18.066 14.359-12.344 13.039-11.406 34.181-1.183 47.705 10.224 13.524 27.593 20.358 45.009 22.665 17.402 2.319 35.301.699 53.009.488 58.367-.715 110.754 2.681 142.478 52.941 6.177 9.78 11.722 20.11 14.419 31.43 10.069 42.31-33.111 104.72-66.492 131.18-6.651 5.26-14.225 9.27-21.12 14.24-35.19 25.3-47.333 75.66-29.483 112.36 17.85 36.7 62.062 57.46 104.581 52.05 20.68-2.62 40.622-10.65 61.289-13.46 24.709-3.35 49.936.84 74.244-5.25 10.003-2.5 19.618-6.7 29.719-8.67 21.661-4.23 43.291 2.08 63.794 8.47 30.126 9.37 60.96 19.08 93.126 17.55 46.15-2.16 89.252-27.29 125.867-56.57 36.615-29.28 69.242-63.48 108.164-89.7 63.988-43.14 145.714-65.74 190.589-127.66 43.295-59.72 51.739-172.955 6.265-229.395-18.654-23.167-47.008-36.871-66.106-60.208-29.566-36.111-50.092-78.23-82.138-112.659-31.629-33.982-70.673-62.561-117.218-74.894l.014-.009Z"/><path d="M414.204 967.212c-16.781-37.815-50.536-64.885-76.286-97.241-44.778-56.278-69.848-133.207-136.115-164.1-54.704-25.506-128.965-7.72-169.022 40.457-27.454 33.016-38.26 75.484-59.202 112.566-20.933 37.096-60.908 71.856-102.136 63.964-19.678-3.767-37.213-16.956-57.484-14.976-18.991 1.871-34.598 16.577-52.863 22.717-36.822 12.386-72.929-11.813-102.621-33.846-29.692-22.032-68.435-44.005-103.732-27.531-10.418 4.853-19.218 12.708-26.773 21.315-6.77 7.706-12.919 16.722-13.429 26.598-.788 15.146 12.244 27.418 26.733 32.152 14.489 4.734 30.464 3.91 45.923 4.864 51.588 3.169 101.102 28.467 127.834 70.329 26.732 41.86 28.038 100.05-.757 143.61-23.392 35.38-65.445 63.04-69.697 104.06-3.944 37.99 30.389 70.52 68.733 75.74 54.765 7.45 109.224-28.45 164.953-28.88 57.903-.44 111.54 37.42 168.744 25.26 68.383-14.56 104.116-90.72 163.212-129.08 32.123-20.85 70.173-29.75 105.147-45.22 80.808-35.75 135.045-121.22 98.836-202.793l.002.035Z"/><path d="M368.335 961.289c-22.766-39.896-57.906-71.402-83.32-109.662-23.756-35.768-39.661-78.145-73.623-104.88-38.25-30.102-100.605-32.399-139.122 1.487-27.087 23.827-38.372 59.407-55.067 90.81-14.984 28.205-35.127 53.998-59.13 75.747-22.014 19.945-50.414 37.294-79.211 33.668-13.832-1.748-26.964-6.659-40.427-9.72-4.835-1.101-9.79-2.202-14.803-1.588-19.41 2.375-30.557 28.275-50.011 29.501-7.391.46-14.159-2.906-20.628-6.047-12.206-5.938-33.693-8.853-40.953 7.429-8.283 18.582 18.56 39.166 28.642 50.376 34.267 38.04 39.887 98.59 13.502 145.18-8.768 15.49-20.574 29.29-29.636 44.63-9.062 15.33-15.373 33.26-11.578 49.93 5.346 23.46 29.824 38.17 54.526 40.64 24.689 2.48 49.759-4.74 74.031-11.87 24.263-7.15 49.325-14.38 74.034-11.93 46.687 4.63 86.315 43.18 133.205 34.93 22.868-4.01 42.87-18.93 58.772-35.98 15.918-17.07 28.736-36.59 44.13-54.11 19.234-21.88 42.668-40.61 69.274-52.76 46.302-21.16 114.921-25.91 149.034-68.62 31.094-38.93 19.645-99.885-1.643-137.196l.002.035Z"/><path d="M195.24 1155.48c25.346-9.96 52.255-14.65 78.101-23.01 25.869-8.36 51.764-21.3 67.86-43.03 21.086-28.48 21.021-67.04 8.635-98.364-12.385-31.324-35.355-56.981-58.083-81.838-22.727-24.857-46.006-50.153-59.224-81.125-7.803-18.285-12.155-38.636-24.871-53.924-19.974-24.04-60.138-29.089-88.006-11.046-22.448 14.523-34.808 39.911-43.015 64.643-8.206 24.732-13.635 50.639-27.45 73.129-12.626 20.552-31.417 36.894-50.114 52.562-14.857 12.446-30.118 24.883-47.723 32.999-17.605 8.116-38.125 11.54-55.738 5.269-11.083-3.952-20.291-11.41-30.828-16.488-10.537-5.077-23.881-7.503-34.394-1.246-13.242 7.889-20.925 28.219-35.807 26.259-8.892-1.181-19.316-10.044-24.772-2.713-1.863 2.513-1.689 5.833-1.139 8.773 5.143 27.14 34.439 43.97 39.94 71.01 2.555 12.5-.389 25.78-5.071 38.06-9.709 25.5-26.781 48.28-35.926 73.95-9.146 25.67-8.024 57.68 13.456 73.18 12.891 9.31 30.517 10.69 46.96 8.49 25.762-3.42 50.067-14.53 74.891-22.81 24.824-8.28 52.088-13.74 76.057-5.62 35.99 12.18 76.086 53.26 109.684 9.7 31.702-41.11 54.585-76.42 106.531-96.82l.046.01Z"/><path d="M274.24 941.265c-22.481-21.987-46.685-43.811-58.569-72.874-6.402-15.633-8.961-32.83-16.324-48.031-7.377-15.192-21.555-28.82-39.179-28.476-17.431.335-32.615 14.385-40.377 29.991-7.762 15.606-9.999 32.909-14.283 49.57C90.196 931.047 47.566 983.297-4.82 1019.02c-15.206 10.37-31.831 19.7-49.867 22.25-22.503 3.17-44.879-4.75-62.703-17.3-13.045-9.18-29.684-21.29-43.851-12.24-12.463 7.96-11.099 26.26-4.331 38.42 6.769 12.15 17.435 22.77 19.22 36.7 3.268 25.56-23.873 46.42-31.658 71.63-7.639 24.75 7.076 52.89 31.628 60.42 23.998 7.37 50.388-3.42 74.628-12.7 18.592-7.11 48.989-18 67.522-7.65 18.843 10.52 24.8 35.69 52.4 32.77 20.895-2.22 34.971-22.17 47.788-38.96 24.578-32.19 60.552-64.74 101.48-73.8 16.527-3.65 34.157 1.06 51.415-1.2 22.033-2.88 44.183-10.01 58.176-28.6 41.288-54.81 6.782-108.81-32.781-147.517l-.006.022Z"/><path d="M137.95 1043.55c2.49.05 4.965.3 7.391.81 17.135 3.61 28.232 18.75 42.899 27.7 26.792 16.38 67.332 13.97 91.754-9.01 10.797-10.15 17.886-25.28 16.759-39.58-1.168-14.78-14.805-24.661-25.673-33.377-23.417-18.788-50.58-34.301-67.508-58.864-6.96-10.114-12.338-21.666-15.662-33.55-2.879-10.314-2.612-21.756-8.858-30.823-4.187-6.062-11.118-10.576-18.811-10.599-21.128-.023-22.54 26.34-22.823 40.611-.533 27.642-8.41 57.376-29.91 76.589-9.92 8.854-22.022 14.854-33.53 21.584-17.915 10.479-40.08 26.819-31.08 49.619 4.351 11.02 17.744 16.16 30.103 15.49 12.373-.69 24.167-5.88 35.937-10.25 9.354-3.48 19.296-6.52 28.989-6.35h.023Z"/><path d="M79.117 1156.39c-10.906 12.52-23.589 26.66-40.01 27.28-14.808.56-26.523-10.24-39.74-16.05-13.293-5.83-29.089-6.59-43.478-2.09-11.884 3.71-22.566 10.75-34.336 14.8-11.77 4.06-26.114 4.44-34.481-3.86-8.222-8.17-7.774-21.57-5.25-33.21 2.509-11.63 6.594-23.63 3.877-34.92-2.057-8.59-7.998-16.5-6.472-25.39 1.712-9.96 12.57-16.8 22.853-17.88 10.282-1.07 20.189 2.14 29.982 4.7 9.794 2.56 20.456 4.44 30.241.86 10.839-3.96 19.148-14.12 30.447-16.21 15.658-2.88 27.898 10.63 37.571 22.26 2.978 3.59 6.214 7.24 10.697 8.82 3.023 1.06 6.39 1.08 9.664.83 28.725-2.26 57.255-24.32 84.065-15.72 23.245 7.47 11.164 31.84-3.963 42.37-19.438 13.5-35.893 25.26-51.69 43.41h.023ZM171.557 1035.64c9.305 8.63 20.082 15.74 31.823 21 10.557 4.73 22.18 7.99 34.058 7.15 11.284-.8 23.207-5.44 32.033-12.81 9.924-8.28 10.915-18.53 5.824-29.49-6.267-13.48-19.016-22.7-31.947-30.369-12.937-7.646-26.753-14.444-37.077-25.179-9.327-9.679-15.227-21.969-22.121-33.469-3.393-5.68-9.091-11.936-15.746-9.79-7.543 2.439-9.141 14.639-10.955 21.13-2.681 9.611-3.559 19.026-7.711 28.38-3.118 7.009-7.532 14.006-14.445 17.676-6.374 3.388-13.855 3.419-20.714 5.524-6.094 1.869-11.898 5.627-15.081 11.077-3.175 5.45-3.231 12.69.823 17.18 3.868 4.28 10.603 5.28 16.511 3.84 10.156-2.45 18.173-11.68 29.121-10.71 8.865.79 15.01 8.11 20.964 14.3 1.509 1.55 3.053 3.07 4.632 4.55l.008.01Z"/><path d="M254.933 1024.72c-4.113-7.43-12.349-11.56-20.337-14.91-7.987-3.35-16.461-6.52-22.044-12.945-2.342-2.698-4.095-5.913-6.732-8.353-4.373-4.041-11.097-5.529-17.125-3.776-6.027 1.753-11.132 6.663-12.991 12.511-2.288 7.163.172 14.713 3.724 21.063 8.766 15.66 24.638 27.02 42.61 31.2 7.607 1.76 19.582 3.99 26.987-.41 7.911-4.71 9.85-17.25 5.916-24.37l-.008-.01ZM83.021 1024.57c-.12-1.71-.548-3.44-1.503-4.84-1.596-2.37-4.519-3.58-7.454-4.02-5.69-.85-11.976 1.03-16.087 5.24-8.128 8.3-4.249 22.78 7.724 23.71 9.577.75 17.913-11.78 17.32-20.09ZM69.868 1130.05c-10.882 6.94-16.499 21.5-28.873 24.91-11.63 3.2-22.117-5.19-32.58-10.18-15.126-7.22-33.905-7.42-49.996-.53-8.769 3.75-17.928 9.66-26.878 7.34-6.137-1.59-10.355-6.72-13.996-11.68-4.376-5.98-8.589-12.31-10.116-19.61-1.526-7.29.153-15.81 6.01-21.04 6.963-6.22 17.366-6.12 26.417-5 9.052 1.11 18.808 2.72 27.141-1.5 7.664-3.9 12.864-12.21 21.126-14.48 8.876-2.43 17.482 3.14 23.68 9.31s11.971 13.49 20.606 15.88c8.193 2.25 17.209-.53 25.118-4.32 12.49-5.98 36.638-21.76 45.235-3.63 9.156 19.31-21.242 27.11-32.923 34.55l.029-.02Z"/></g></g><defs><clipPath id="a"><path fill="#fff" d="M505.935 0v1055H.065V0z"/></clipPath></defs></svg>