<svg xmlns="http://www.w3.org/2000/svg" width="1512" height="725" fill="none"><g clip-path="url(#a)"><path fill="#1F3268" d="M0 0h1512v725H0z"/><path fill="#17264E" fill-rule="evenodd" stroke="#17264E" d="M-160.16 124.007c47.864-371.223 419.107-589.02 789.504-637.279C948.301-554.83 1230.93-359.844 1385.69-77.405c162.78 297.086 220.44 674.802-13.5 919.837-236.51 247.738-616.191 209.348-925.915 64.14C116.219 751.83-206.869 486.275-160.16 124.007Z" clip-rule="evenodd"/><path fill="#101934" fill-rule="evenodd" d="M1090.84-238.04c262.9 177.517 511.58 450.204 416.98 753.123-92.13 294.998-452.74 347.89-761.699 350.681-287.209 2.594-594.545-71.264-702.416-337.455C-78.24 227.39 1.444-133.31 263.529-325.118c247.469-181.11 573.27-84.464 827.311 87.078Z" clip-rule="evenodd"/><mask id="b" width="1542" height="1289" x="-13" y="-423" maskUnits="userSpaceOnUse" style="mask-type:alpha"><path fill="#101934" fill-rule="evenodd" d="M1090.84-238.04c262.9 177.517 511.58 450.204 416.98 753.123-92.13 294.998-452.74 347.89-761.699 350.681-287.209 2.594-594.545-71.264-702.416-337.455C-78.24 227.39 1.444-133.31 263.529-325.118c247.469-181.11 573.27-84.464 827.311 87.078Z" clip-rule="evenodd"/></mask><g stroke="#fff" stroke-miterlimit="10" stroke-opacity=".15" stroke-width="2" mask="url(#b)"><path d="M919.662 475.274c-25.052 94.526 7.879 212.854 93.708 263.724 71.57 42.407 175.2 36.357 229.36 110.865 12.42 17.086 21.42 37.797 20.09 58.444-2.26 35.484-33.9 63.689-30.67 99.403 2.15 23.75 19.32 43.86 26.53 66.8 8.23 26.22 2.72 54.63-9.26 78.11-28.99 56.83-71.28 99.28-78.98 168.03-5.37 47.89 12 103.12 53.56 128.61 28.15 17.26 64.67 19.82 86.97 44.66 7.38 8.21 12.58 18.32 20.58 25.89 18.69 17.69 48.99 16.35 68.37 1.7 19.38-14.66 29.18-39.55 32.48-64.51 3.32-24.94 1-50.59.7-75.97-1.02-83.65 3.85-158.73 75.87-204.2 14.02-8.85 28.82-16.8 45.05-20.66 60.64-14.43 150.09 47.45 188.01 95.29 7.54 9.54 13.28 20.39 20.4 30.27 36.27 50.43 108.44 67.84 161.04 42.26 52.6-25.59 82.34-88.95 74.6-149.89-3.77-29.63-15.27-58.21-19.3-87.83-4.81-35.42 1.21-71.57-7.52-106.409-3.59-14.336-9.61-28.117-12.43-42.592-6.06-31.045 2.99-62.045 12.14-91.429 13.43-43.175 27.34-87.366 25.16-133.465-3.11-66.141-39.12-127.915-81.08-180.39-41.97-52.475-90.98-99.235-128.56-155.018-61.82-91.705-94.21-208.834-182.96-273.147-85.59-62.05-247.87-74.152-328.76-8.98-33.2 26.736-52.84 67.371-86.29 94.742-51.75 42.374-112.12 71.79-161.46 117.719-48.701 45.329-89.659 101.286-107.335 167.993l-.013-.02Z"/><path d="M1386.19 131.464c-54.2 24.051-93 72.428-139.37 109.332-80.65 64.175-190.91 100.103-235.18 195.076-36.557 78.4-11.07 184.83 57.98 242.239 47.32 39.345 108.18 54.834 161.33 84.847 53.16 30 102.98 87.29 91.67 146.378-5.4 28.202-24.3 53.332-21.46 82.385 2.68 27.219 23.75 49.589 32.55 75.759 17.75 52.78-16.93 104.52-48.5 147.08-31.58 42.55-63.07 98.08-39.46 148.66 6.95 14.93 18.21 27.55 30.55 38.37 11.04 9.71 23.96 18.52 38.12 19.25 21.7 1.13 39.29-17.55 46.08-38.31 6.78-20.77 5.6-43.66 6.97-65.82 4.54-73.93 40.8-144.9 100.79-183.21 59.99-38.31 143.38-40.18 205.82 1.09 50.71 33.52 90.35 93.79 149.14 99.88 54.44 5.66 101.07-43.55 108.54-98.5 10.69-78.49-40.77-156.539-41.38-236.409-.64-82.984 53.62-159.855 36.19-241.838-20.86-98.005-130.01-149.217-184.98-233.913-29.89-46.037-42.64-100.57-64.81-150.693-51.24-115.812-173.74-193.543-290.64-141.65l.05-.003Z"/><path d="M1377.7 197.204c-57.18 32.628-102.33 82.99-157.17 119.412-51.26 34.047-111.99 56.841-150.31 105.515-43.14 54.819-46.43 144.184 2.13 199.386 34.15 38.821 85.14 54.994 130.15 78.921 40.42 21.475 77.39 50.343 108.56 84.742 28.58 31.551 53.45 72.253 48.25 113.525-2.51 19.824-9.54 38.644-13.93 57.938-1.58 6.931-3.16 14.032-2.28 21.216 3.41 27.821 40.53 43.791 42.28 71.671.66 10.6-4.16 20.3-8.66 29.57-8.51 17.49-12.69 48.28 10.64 58.69 26.63 11.87 56.14-26.6 72.19-41.05 54.53-49.11 141.31-57.16 208.08-19.35 22.2 12.57 41.98 29.49 63.96 42.47 21.98 12.99 47.67 22.04 71.56 16.6 33.62-7.67 54.7-42.75 58.25-78.15 3.55-35.38-6.8-71.311-17.02-106.097-10.24-34.774-20.61-70.692-17.1-106.104 6.63-66.912 61.89-123.705 50.07-190.907-5.75-32.774-27.13-61.438-51.58-84.23-24.45-22.813-52.42-41.184-77.54-63.246-31.36-27.566-58.19-61.15-75.62-99.282-30.31-66.358-37.13-164.702-98.33-213.591-55.8-44.564-143.16-28.156-196.63 2.355l.05-.004Z"/><path d="M1656 445.28c-14.26-36.327-20.99-74.892-32.97-111.934-11.98-37.074-30.53-74.187-61.68-97.254-40.8-30.22-96.07-30.127-140.96-12.376-44.9 17.75-81.67 50.67-117.29 83.242-35.63 32.573-71.88 65.936-116.27 84.879-26.2 11.183-55.37 17.421-77.28 35.645-34.45 28.626-41.69 86.189-15.83 126.127 20.81 32.173 57.2 49.887 92.64 61.649 35.45 11.761 72.58 19.541 104.81 39.341 29.45 18.095 52.88 45.026 75.33 71.821 17.84 21.294 35.66 43.165 47.29 68.396 11.63 25.232 16.54 54.64 7.55 79.883-5.66 15.884-16.35 29.08-23.62 44.181-7.28 15.102-10.76 34.226-1.79 49.293 11.31 18.979 40.45 29.989 37.63 51.317-1.69 12.74-14.39 27.68-3.88 35.5 3.59 2.67 8.36 2.42 12.57 1.64 38.89-7.37 63.01-49.36 101.77-57.245 17.91-3.663 36.95.557 54.55 7.265 36.55 13.92 69.18 38.38 105.98 51.49 36.79 13.11 82.66 11.5 104.87-19.28 13.36-18.48 15.32-43.74 12.17-67.306-4.9-36.922-20.82-71.755-32.69-107.332-11.87-35.577-19.69-74.652-8.05-109.003 17.45-51.58 76.33-109.045 13.9-157.197-58.91-45.434-109.52-78.229-138.76-152.678l.01-.064Z"/><path d="M1349 332.06c-31.51 32.219-62.79 66.908-104.44 83.939-22.41 9.177-47.05 12.844-68.84 23.396-21.77 10.573-41.3 30.892-40.81 56.15.48 24.981 20.62 46.743 42.98 57.867 22.37 11.125 47.17 14.33 71.04 20.471 85.42 21.945 160.31 83.04 211.51 158.119 14.86 21.792 28.24 45.62 31.88 71.467 4.54 32.251-6.81 64.32-24.78 89.865-13.17 18.696-30.52 42.543-17.55 62.846 11.41 17.862 37.63 15.908 55.06 6.207 17.42-9.7 32.63-24.987 52.6-27.546 36.63-4.682 66.52 34.215 102.66 45.372 35.47 10.949 75.79-10.14 86.58-45.328 10.57-34.394-4.89-72.215-18.19-106.955-10.19-26.646-25.79-70.209-10.97-96.77 15.08-27.006 51.16-35.545 46.97-75.099-3.19-29.946-31.77-50.12-55.83-68.489-46.14-35.224-92.8-86.781-105.77-145.439-5.24-23.686 1.51-48.953-1.73-73.687-4.12-31.576-14.34-63.321-40.98-83.376-78.55-59.172-155.95-9.72-211.42 46.982l.03.008Z"/><path d="M1495.6 527.386c.07-3.569.42-7.115 1.16-10.593 5.16-24.558 26.86-40.461 39.7-61.482 23.47-38.397 20.02-96.498-12.92-131.499-14.55-15.475-36.23-25.633-56.73-24.019-21.18 1.674-35.34 21.219-47.83 36.794-26.93 33.561-49.16 72.489-84.36 96.75-14.5 9.975-31.05 17.683-48.09 22.447-14.78 4.126-31.18 3.744-44.17 12.695-8.69 6.001-15.16 15.934-15.19 26.96-.03 30.279 37.75 32.303 58.2 32.709 39.62.764 82.23 12.052 109.77 42.866 12.69 14.218 21.29 31.562 30.93 48.055 15.01 25.676 38.44 57.44 71.11 44.542 15.79-6.235 23.16-25.43 22.2-43.142-.98-17.732-8.42-34.636-14.69-51.504-4.98-13.406-9.35-27.655-9.1-41.546l.01-.033Z"/><path d="M1657.32 611.704c17.93 15.631 38.2 33.807 39.09 57.341.81 21.223-14.67 38.012-23 56.954-8.36 19.052-9.46 41.69-3.01 62.313 5.33 17.031 15.41 32.34 21.23 49.209 5.81 16.868 6.36 37.427-5.54 49.417-11.7 11.785-30.91 11.142-47.59 7.525-16.67-3.597-33.87-9.45-50.06-5.557-12.3 2.948-23.65 11.463-36.38 9.276-14.27-2.453-24.08-18.016-25.62-32.752-1.54-14.737 3.06-28.935 6.73-42.971 3.66-14.035 6.36-29.315 1.23-43.34-5.68-15.534-20.24-27.443-23.22-43.635-4.14-22.441 15.23-39.984 31.89-53.847 5.15-4.268 10.38-8.905 12.65-15.33 1.52-4.333 1.55-9.159 1.18-13.85-3.24-41.168-34.86-82.057-22.53-120.48 10.71-33.315 45.64-16 60.72 5.68 19.35 27.858 36.21 51.44 62.22 74.079l.01-.032ZM1484.26 479.222c12.37-13.336 22.56-28.782 30.09-45.609 6.78-15.13 11.45-31.787 10.25-48.81-1.15-16.172-7.8-33.26-18.36-45.91-11.86-14.222-26.55-15.642-42.27-8.346-19.32 8.981-32.53 27.254-43.52 45.786-10.96 18.541-20.7 38.341-36.08 53.138-13.88 13.367-31.49 21.822-47.97 31.702-8.14 4.863-17.11 13.029-14.03 22.567 3.49 10.81 20.98 13.1 30.28 15.7 13.77 3.843 27.27 5.102 40.67 11.052 10.05 4.469 20.08 10.795 25.34 20.702 4.85 9.135 4.9 19.857 7.91 29.687 2.68 8.733 8.07 17.051 15.87 21.614 7.83 4.55 18.2 4.63 24.63-1.18 6.14-5.544 7.56-15.196 5.51-23.663-3.52-14.555-16.75-26.046-15.35-41.736 1.13-12.704 11.62-21.511 20.49-30.044 2.23-2.163 4.4-4.376 6.52-6.638l.02-.012Z"/><path d="M1468.6 359.73c-10.65 5.894-16.56 17.698-21.36 29.146-4.8 11.447-9.35 23.593-18.56 31.594-3.86 3.356-8.47 5.869-11.97 9.647-5.79 6.267-7.92 15.905-5.41 24.543s9.55 15.955 17.93 18.619c10.26 3.28 21.09-.247 30.18-5.338 22.46-12.563 38.73-35.309 44.72-61.067 2.52-10.903 5.73-28.065-.59-38.676-6.74-11.339-24.72-14.118-34.92-8.48l-.02.012ZM1468.39 606.11c-2.46.173-4.94.785-6.94 2.154-3.39 2.287-5.13 6.476-5.76 10.683-1.22 8.153 1.48 17.163 7.51 23.056 11.89 11.649 32.65 6.088 33.99-11.07 1.07-13.726-16.89-25.673-28.8-24.823ZM1619.56 624.96c9.94 15.596 30.82 23.646 35.7 41.38 4.59 16.667-7.44 31.697-14.6 46.694-10.33 21.677-10.62 48.591-.75 71.652 5.37 12.567 13.85 25.694 10.53 38.521-2.29 8.795-9.64 14.841-16.75 20.059-8.58 6.271-17.64 12.309-28.1 14.497-10.45 2.188-22.66-.218-30.16-8.612-8.91-9.98-8.76-24.889-7.17-37.861 1.6-12.973 3.91-26.955-2.14-38.898-5.59-10.983-17.5-18.437-20.75-30.277-3.49-12.721 4.5-25.055 13.34-33.938 8.83-8.883 19.34-17.157 22.76-29.532 3.22-11.742-.77-24.663-6.2-35.998-8.57-17.902-31.18-52.509-5.2-64.83 27.67-13.122 38.86 30.443 49.52 47.184l-.03-.041Z"/></g></g><defs><clipPath id="a"><path fill="#fff" d="M0 0h1512v725H0z"/></clipPath></defs></svg>