<?xml version="1.0" encoding="utf-8"?>
<!-- Generator: Adobe Illustrator 26.0.1, SVG Export Plug-In . SVG Version: 6.00 Build 0)  -->
<svg version="1.1" id="Layer_1" xmlns="http://www.w3.org/2000/svg" xmlns:xlink="http://www.w3.org/1999/xlink" x="0px" y="0px"
	 viewBox="0 0 1400 900" style="enable-background:new 0 0 1400 900;" xml:space="preserve">
<style type="text/css">
	.st0{fill:#0097B2;}
	.st1{opacity:0.4;}
	.st2{fill:#002B60;}
</style>
<g>
	<g>
		<path class="st0" d="M702.89,506.18l-0.03,1.01c0.12,1.84,1.26,5.77,8.46,8.02h-22.69c0,0,7.79-1.16,9.88-8.99l0-0.08l2.21-55.53
			l0.97-20.28l1.2-24.68l7.75-15.65h4.37l5.94,11.44l9.03,19.26l35.52,71.03L810.82,390h20.29c-11.44,3.61-9.03,12.04-9.03,12.04
			l3.31,101.43c0,7.22,10.23,12.04,10.23,12.04h-30.7c9.93-3.31,9.33-11.74,9.33-11.74l-4.21-104.14l-49.36,110.16l-38.53-77.65
			l-9.03-16.85l-6.62-13.85l-0.6,24.08L702.89,506.18z"/>
		<g>
			<g class="st1">
				<path class="st2" d="M674.33,444.98c0,0-0.19-0.03-0.55-0.07c5.05-10.9,14.3-33.15,18.55-57.93c0,0,67-20,88-96c0,0,15-44-13-55
					c0,0-35-15-60,53c0,0-12.05,27.5-21.03,92.25c0,0-47.97,17.75-62.97-20.25c0,0-10-48,42-67c0,0,3-6-11,0c0,0-55,17-45,64
					c0,0,6,40,73,32c0,0-8.93,37.45-16.68,54.3c-16.86-0.7-54.92,1-83.94,26.7c0,0-19.91,14.94-12.81,34.27
					c1.66,4.51,5.04,10.12,9.27,12.41c12.65,6.82,55.24,14.33,90.18-59.18c0,0,60.59-2.84,97.68,17.77
					c9.01,5.01,16.37,12.61,20.67,21.98c4.12,9,7.12,21.75,2.62,36.75c0,0,16.5-5.5,9.5-31.5
					C795.04,489.4,779.83,452.48,674.33,444.98z M760.15,249.73c4.99-1.04,10.01,1.81,11.61,6.66c1.67,5.09,2.62,13.87-0.43,28.59
					c0,0-16.2,75.46-75.6,92.73C695.73,377.71,724.97,257.03,760.15,249.73z M605.33,510.98c-16,4-21.5-0.25-25-5.5
					c-3.47-5.21-2.22-10.63,0.91-16.05c19.59-33.95,76.65-30.95,76.65-30.95C639.43,501.98,605.33,510.98,605.33,510.98z"/>
			</g>
			<g>
				<g>
					<path class="st2" d="M671.33,439.98c0,0-0.19-0.03-0.55-0.07c5.05-10.9,14.3-33.15,18.55-57.93c0,0,67-20,88-96
						c0,0,15-44-13-55c0,0-35-15-60,53c0,0-12.05,27.5-21.03,92.25c0,0-47.97,17.75-62.97-20.25c0,0-10-48,42-67c0,0,3-6-11,0
						c0,0-55,17-45,64c0,0,6,40,73,32c0,0-8.93,37.45-16.68,54.3c-16.86-0.7-54.92,1-83.94,26.7c0,0-19.91,14.94-12.81,34.27
						c1.66,4.51,5.04,10.12,9.27,12.41c12.65,6.82,55.24,14.33,90.18-59.18c0,0,60.59-2.84,97.68,17.77
						c9.01,5.01,16.37,12.61,20.67,21.98c4.12,9,7.12,21.75,2.62,36.75c0,0,16.5-5.5,9.5-31.5
						C792.04,484.4,776.83,447.48,671.33,439.98z M757.15,244.73c4.99-1.04,10.01,1.81,11.61,6.66c1.67,5.09,2.62,13.87-0.43,28.59
						c0,0-16.2,75.46-75.6,92.73C692.73,372.71,721.97,252.03,757.15,244.73z M602.33,505.98c-16,4-21.5-0.25-25-5.5
						c-3.47-5.21-2.22-10.63,0.91-16.05c19.59-33.95,76.65-30.95,76.65-30.95C636.43,496.98,602.33,505.98,602.33,505.98z"/>
				</g>
			</g>
		</g>
	</g>
	<g>
		<g>
			<g>
				<path class="st2" d="M565.49,547.82c0,5.9-2.67,11.48-8.02,16.75c-5.07,4.95-10.62,7.94-16.63,8.97
					c-1.42,2.95-3.15,6.33-5.19,10.15c-0.28,0.43-0.69,1.1-1.24,2.01c7.98,2,14.43,4.94,19.35,8.79c1.73,1.34,3.13,2.99,4.19,4.96
					c1.18,2.12,1.77,4.21,1.77,6.25c0,2.01-0.69,3.4-2.06,4.19c-0.55,0.31-0.94,0.47-1.18,0.47c-0.24,0-0.35-0.12-0.35-0.35
					c0-0.12,0.22-0.78,0.65-1.98c0.43-1.2,0.65-2.25,0.65-3.16c0-3.58-1.42-6.57-4.25-8.97c-2.08-1.81-5.15-3.4-9.2-4.78
					c-2.64-0.9-6.41-1.83-11.33-2.77c-5.31,7.43-10.79,11.15-16.46,11.15c-1.93,0-3.62-0.47-5.07-1.42
					c-1.65-1.1-2.48-2.58-2.48-4.42c0-3.5,2.91-6.11,8.73-7.85c2.52-0.75,5.54-1.12,9.08-1.12c2.12,0,4.03,0.16,5.72,0.47
					c1.69-2.63,3.75-6.43,6.19-11.38c-3.74,0.12-7.08-0.69-10.03-2.42c-3.42-2.04-5.13-4.84-5.13-8.38c0-3.07,1.47-5.68,4.42-7.85
					c2.28-1.73,5.15-2.99,8.61-3.77c0.51-0.12,0.88-0.18,1.12-0.18c0.55,0,0.83,0.12,0.83,0.35c0,0.39-0.61,0.67-1.83,0.83
					c-3.74,0.43-6.61,2.38-8.61,5.84c-1.14,1.97-1.71,3.85-1.71,5.66c0,1.26,0.27,2.5,0.83,3.72c1.49,3.26,4.7,4.9,9.61,4.9
					c0.86,0,1.77-0.06,2.71-0.18c0.12-0.24,1.79-4.44,5.01-12.62c1.73-4.37,3.7-8.04,5.9-11.03c3.22-4.37,6.53-6.55,9.91-6.55
					c1.49,0,2.78,0.46,3.86,1.39C564.94,544.41,565.49,545.86,565.49,547.82z M530.33,587.99c-1.85-0.39-3.76-0.59-5.72-0.59
					c-2.28,0-4.46,0.28-6.55,0.83c-5.43,1.42-8.14,3.42-8.14,6.02c0,1.22,0.63,2.16,1.89,2.83c0.98,0.51,2.14,0.77,3.48,0.77
					c2.87,0,5.74-1.04,8.61-3.13C526.26,592.99,528.4,590.74,530.33,587.99z M563.01,547.76c0-1.42-0.67-2.12-2.01-2.12
					c-2.32,0-5.11,2.18-8.38,6.55c-2.04,2.75-3.97,5.92-5.78,9.5c-0.94,1.85-2.67,5.27-5.19,10.26c5.47-1.22,10.34-4.15,14.63-8.79
					C560.81,558.28,563.05,553.15,563.01,547.76z"/>
				<path class="st2" d="M575.51,588.58c-1.89,2.67-3.72,4.01-5.49,4.01c-2.2,0-3.3-1.4-3.3-4.19c0-1.02,0.2-2.14,0.59-3.36
					c-2.87,5.03-5.53,7.55-7.96,7.55c-2.56,0-3.83-1.24-3.83-3.72c0-1.02,0.71-2.95,2.12-5.78c-0.43,0.04-0.65-0.12-0.65-0.47
					c0-0.04,1.49-3.05,4.48-9.03c0.43-0.83,1.2-1.24,2.3-1.24h3.6c-1.42,1.02-2.67,2.67-3.77,4.95c-0.71,1.42-1.95,3.95-3.72,7.61
					c-0.83,1.73-1.24,3.21-1.24,4.42c0,1.3,0.45,1.95,1.36,1.95c0.9,0,2.02-0.77,3.36-2.3c1.97-2.28,4.9-7.41,8.79-15.4
					c0.39-0.83,1.16-1.24,2.3-1.24h3.19c-1.3,1.06-2.65,3.01-4.07,5.84c-2.32,4.64-3.64,7.77-3.95,9.38
					c-0.12,0.63-0.18,1.1-0.18,1.42c0,1.38,0.43,2.08,1.3,2.12c2.08,0.04,4.68-3.25,7.79-9.85c0.2-0.39,0.41-0.59,0.65-0.59
					c0.2,0,0.29,0.16,0.29,0.47c0,0.16-0.02,0.31-0.06,0.47c-0.16,0.39-0.74,1.5-1.74,3.33
					C576.66,586.78,575.94,587.99,575.51,588.58z"/>
				<path class="st2" d="M600.17,581.85c-1.69,3.37-2.93,5.63-3.72,6.81c-1.93,2.78-3.87,4.17-5.84,4.17
					c-2.44,0-3.66-1.27-3.66-3.82c0-2.12,1.26-5.19,3.77-9.22c0.39-0.63,0.59-1.16,0.59-1.59c0-0.63-0.37-0.82-1.12-0.59
					c-0.98,0.32-2.2,1.16-3.66,2.54c-2.87,2.67-5.6,6.57-8.2,11.68c-0.32,0.59-0.96,0.9-1.95,0.94c-1.26,0.04-2.02,0.14-2.3,0.29
					c2.2-4.8,4.92-10.3,8.14-16.52c0.67-1.26,1.2-2.12,1.59-2.59c0.75-0.83,1.61-1.2,2.6-1.12c0.2,0,0.59,0.06,1.18,0.18
					s1.02,0.14,1.3,0.06c-1.53,0.83-3.91,4.52-7.14,11.09c3.15-3.97,6.51-6.96,10.09-8.97c2.32-1.3,4.03-1.95,5.13-1.95
					c0.24,0,0.43,0.02,0.59,0.06c-2.05,3.76-3.4,6.31-4.07,7.64c-1.73,3.45-2.73,5.96-3.01,7.53c-0.08,0.47-0.12,0.94-0.12,1.41
					c0,1.02,0.35,1.53,1.06,1.53c2.08,0,4.78-3.38,8.08-10.15c0.2-0.39,0.39-0.59,0.59-0.59c0.16,0,0.24,0.14,0.24,0.41
					C600.35,581.36,600.29,581.62,600.17,581.85z"/>
				<path class="st2" d="M622.17,581.8c-3.5,7.15-6.47,10.83-8.91,11.02c-1.14,0.08-2.02-0.3-2.62-1.13
					c-0.61-0.83-0.91-1.84-0.91-3.03c0-1.03,0.2-2.2,0.59-3.51c-3.07,5.11-5.82,7.67-8.26,7.67c-1.14,0-2.01-0.57-2.6-1.72
					c-0.47-0.91-0.71-2-0.71-3.26c0-3.76,1.65-7.63,4.96-11.63c1.06-1.3,2.44-2.4,4.13-3.29c1.69-0.89,3.34-1.33,4.96-1.33
					c1.93,0,3.46,0.63,4.6,1.89c0.27,0.32,0.41,0.63,0.41,0.94c0,0.67-0.35,0.92-1.06,0.77c-0.39-1.42-1.3-2.12-2.71-2.12
					c-1.65,0-3.6,1.17-5.84,3.5c-1.65,1.7-3.09,3.58-4.31,5.64c-1.65,2.77-2.48,5.09-2.48,6.95c0,1.35,0.49,2.02,1.48,2.02
					c2.4,0,5.49-3.63,9.26-10.9c0.79-1.5,1.38-2.47,1.77-2.9c0.63-0.67,1.38-0.97,2.24-0.89c0.2,0,0.59,0.06,1.18,0.18
					s1.02,0.14,1.3,0.06c-0.9,0.91-1.99,2.66-3.24,5.25c-1.18,2.44-1.93,4.37-2.24,5.78c-0.16,0.75-0.24,1.42-0.24,2
					c0,1.02,0.27,1.53,0.83,1.53c1.81,0.08,4.34-3.24,7.61-9.96c0.2-0.4,0.43-0.59,0.71-0.59c0.2,0,0.29,0.12,0.29,0.36
					C622.35,581.33,622.29,581.57,622.17,581.8z"/>
				<path class="st2" d="M646.77,581.92c-2.24,4.52-3.99,7.43-5.25,8.73c-1.77,1.85-4.66,3.5-8.67,4.96
					c-5.82,10.46-11.92,15.69-18.29,15.69c-3.74,0-5.6-1.35-5.6-4.06c0-3.1,2.05-5.69,6.14-7.76c1.93-0.98,4.45-1.86,7.56-2.65
					l7.07-1.79c1.53-2.64,3.22-7.07,5.07-13.29c-1.85,3.26-3.26,5.53-4.25,6.78c-2.12,2.71-4.17,4.07-6.13,4.07
					c-2.56,0-3.83-1.24-3.83-3.72c0-1.02,0.24-2.02,0.71-3.01c0.31-0.59,0.79-1.51,1.42-2.77c-0.43,0.04-0.65-0.12-0.65-0.47
					c0-0.04,1.49-3.05,4.48-9.03c0.43-0.83,1.2-1.24,2.3-1.24h3.6c-0.51,0.31-1.24,1.02-2.18,2.12c-1.53,2.6-3.3,6.08-5.31,10.44
					c-0.83,1.81-1.24,3.28-1.24,4.42c0,1.3,0.45,1.95,1.36,1.95c0.9,0,2.02-0.77,3.36-2.3c2.71-3.15,5.8-8.28,9.26-15.4
					c0.39-0.83,1.16-1.24,2.3-1.24h3.19c-1.06,0.71-1.93,1.71-2.6,3.01c-1.02,1.93-2.24,4.94-3.66,9.03
					c-1.02,3.11-2.04,6.21-3.07,9.32c3.85-1.45,6.74-3.5,8.67-6.13c0.75-1.02,1.93-3.13,3.54-6.31c0.2-0.39,0.39-0.59,0.59-0.59
					c0.24,0,0.35,0.16,0.35,0.47C647,581.35,646.92,581.6,646.77,581.92z M628.66,596.9l-6.31,1.65c-5.19,1.42-8.63,3.17-10.32,5.25
					c-1.1,1.38-1.65,2.67-1.65,3.89c0,1.61,0.94,2.42,2.83,2.42c2.24,0,4.9-1.38,7.96-4.13c2.24-2.04,4.31-4.35,6.19-6.9
					C627.44,598.92,627.87,598.2,628.66,596.9z"/>
				<path class="st2" d="M668.71,581.8c-3.5,7.15-6.47,10.83-8.91,11.02c-1.14,0.08-2.02-0.3-2.62-1.13
					c-0.61-0.83-0.91-1.84-0.91-3.03c0-1.03,0.2-2.2,0.59-3.51c-3.07,5.11-5.82,7.67-8.26,7.67c-1.14,0-2.01-0.57-2.6-1.72
					c-0.47-0.91-0.71-2-0.71-3.26c0-3.76,1.65-7.63,4.96-11.63c1.06-1.3,2.44-2.4,4.13-3.29c1.69-0.89,3.34-1.33,4.96-1.33
					c1.93,0,3.46,0.63,4.6,1.89c0.27,0.32,0.41,0.63,0.41,0.94c0,0.67-0.35,0.92-1.06,0.77c-0.39-1.42-1.3-2.12-2.71-2.12
					c-1.65,0-3.6,1.17-5.84,3.5c-1.65,1.7-3.09,3.58-4.31,5.64c-1.65,2.77-2.48,5.09-2.48,6.95c0,1.35,0.49,2.02,1.48,2.02
					c2.4,0,5.49-3.63,9.26-10.9c0.79-1.5,1.38-2.47,1.77-2.9c0.63-0.67,1.38-0.97,2.24-0.89c0.2,0,0.59,0.06,1.18,0.18
					s1.02,0.14,1.3,0.06c-0.9,0.91-1.99,2.66-3.24,5.25c-1.18,2.44-1.93,4.37-2.24,5.78c-0.16,0.75-0.24,1.42-0.24,2
					c0,1.02,0.27,1.53,0.83,1.53c1.81,0.08,4.34-3.24,7.61-9.96c0.2-0.4,0.43-0.59,0.71-0.59c0.2,0,0.29,0.12,0.29,0.36
					C668.89,581.33,668.83,581.57,668.71,581.8z"/>
				<path class="st2" d="M669.89,587.64c-0.24,0.71-0.35,1.32-0.35,1.83c0,1.18,0.51,1.81,1.53,1.89c2.12,0.16,4.86-3.19,8.2-10.03
					c0.2-0.39,0.41-0.59,0.65-0.59c0.2,0,0.29,0.14,0.29,0.41c0,0.24-0.06,0.47-0.18,0.71c-3.34,7.2-6.43,10.79-9.26,10.79
					c-2.6,0-3.89-1.42-3.89-4.25c0-1.06,0.24-2.2,0.71-3.42l3.77-9.67c0.08-0.2,0.12-0.41,0.12-0.65c0-0.51-0.24-1.1-0.71-1.77
					l3.24-0.06c1.1-0.04,1.65,0.24,1.65,0.83c0,0.2-0.14,0.61-0.41,1.24l-4.72,11.03C670.3,586.48,670.08,587.05,669.89,587.64z
					 M680.68,566.87c-0.12,0.67-0.45,1.24-1,1.71c-0.55,0.47-1.16,0.71-1.83,0.71c-0.67,0-1.2-0.24-1.59-0.71
					c-0.39-0.47-0.55-1.04-0.47-1.71c0.08-0.67,0.4-1.24,0.97-1.71c0.57-0.47,1.19-0.71,1.86-0.71c0.67,0,1.21,0.24,1.62,0.71
					C680.65,565.64,680.8,566.21,680.68,566.87z"/>
				<path class="st2" d="M700.91,581.85c-1.69,3.37-2.93,5.63-3.72,6.81c-1.93,2.78-3.87,4.17-5.84,4.17
					c-2.44,0-3.66-1.27-3.66-3.82c0-2.12,1.26-5.19,3.77-9.22c0.39-0.63,0.59-1.16,0.59-1.59c0-0.63-0.37-0.82-1.12-0.59
					c-0.98,0.32-2.2,1.16-3.66,2.54c-2.87,2.67-5.6,6.57-8.2,11.68c-0.32,0.59-0.96,0.9-1.95,0.94c-1.26,0.04-2.03,0.14-2.3,0.29
					c2.2-4.8,4.92-10.3,8.14-16.52c0.67-1.26,1.2-2.12,1.59-2.59c0.75-0.83,1.61-1.2,2.6-1.12c0.2,0,0.59,0.06,1.18,0.18
					s1.02,0.14,1.3,0.06c-1.53,0.83-3.91,4.52-7.14,11.09c3.15-3.97,6.51-6.96,10.09-8.97c2.32-1.3,4.03-1.95,5.13-1.95
					c0.24,0,0.43,0.02,0.59,0.06c-2.04,3.76-3.4,6.31-4.07,7.64c-1.73,3.45-2.73,5.96-3.01,7.53c-0.08,0.47-0.12,0.94-0.12,1.41
					c0,1.02,0.35,1.53,1.06,1.53c2.08,0,4.78-3.38,8.08-10.15c0.2-0.39,0.39-0.59,0.59-0.59c0.16,0,0.24,0.14,0.24,0.41
					C701.09,581.36,701.03,581.62,700.91,581.85z"/>
				<path class="st2" d="M797.95,598.43c0.9-0.04,1.36,0.08,1.36,0.35c0,0.55-0.75,0.75-2.24,0.59
					c-6.88-0.63-10.32-4.37-10.32-11.21c0-3.15,0.79-7.1,2.36-11.86c0.43-1.3,1.95-5.66,4.54-13.1c0.71-2,1.06-3.68,1.06-5.01
					c0-1.73-0.59-2.6-1.77-2.6c-2.63,0-6.45,3.54-11.44,10.62c-1.65,2.36-4.09,6.51-7.31,12.45c-3.26,6.06-5.31,10.32-6.13,12.8
					c-0.71,2.12-1.81,3.19-3.3,3.19c-0.47,0-0.93-0.14-1.39-0.41c-0.45-0.28-0.68-0.65-0.68-1.12c0-0.16,0.04-0.32,0.12-0.47
					c2.91-6.29,4.97-12.01,6.19-17.17c1.34-5.62,2.08-11.33,2.24-17.11c0.08-3.81-0.92-5.72-3.01-5.72c-1.85,0-3.8,1.44-5.84,4.31
					c-4.01,5.66-7.28,11.33-9.79,16.99c-1.53,3.5-4.15,10.44-7.84,20.82c-0.39,1.14-1.4,1.71-3.01,1.71c-1.42,0-2.03-0.45-1.83-1.36
					c2.32-4.21,4.65-10.34,6.99-18.4c2.34-8.06,3.61-14.41,3.8-19.05c0.31-7.83-2.27-11.74-7.74-11.74c-4.61,0-9.42,2.3-14.42,6.9
					c-4.77,4.36-7.76,8.89-8.98,13.57c-0.59,2.24-0.89,4.27-0.89,6.08c0,3.26,0.83,6.02,2.49,8.26c1.81,2.48,4.3,3.72,7.45,3.72
					c3.71,0,6.68-1.85,8.93-5.54c1.42-2.32,2.13-4.58,2.13-6.78c0-3.11-1.38-4.66-4.13-4.66c-0.35,0-0.75,0-1.18,0
					c-0.91,0.12-1.36-0.07-1.36-0.56c0-0.26,0.51-0.47,1.53-0.62c0.59-0.08,1.02-0.11,1.3-0.11c1.81,0,3.22,0.59,4.25,1.77
					c1.02,1.18,1.53,2.69,1.53,4.54c0,2.67-0.94,5.19-2.83,7.55c-1.73,2.12-3.91,3.76-6.55,4.9c-1.26,0.55-2.62,0.83-4.07,0.83
					c-3.66,0-6.71-1.4-9.14-4.19c-2.44-2.79-3.66-6.04-3.66-9.73c0-1.89,0.35-3.89,1.06-6.02c1.81-5.43,5.25-10.24,10.32-14.45
					c5.35-4.4,10.77-6.61,16.28-6.61c3.78,0,6.61,1.26,8.49,3.77c1.73,2.28,2.6,5.37,2.6,9.26c0,3.07-0.63,6.98-1.89,11.74
					c-0.16,0.59-0.24,1.06-0.24,1.42c0,0.32,0.06,0.47,0.18,0.47c0.2,0,0.49-0.41,0.88-1.24c2.44-5.31,5.17-10.07,8.2-14.28
					c0.94-1.3,2.19-2.41,3.75-3.33c1.55-0.92,3.1-1.39,4.63-1.39c3.46,0,5.19,2.3,5.19,6.9c0,3.3-0.39,7-1.16,11.09
					c-0.27,1.38-1.08,5.03-2.44,10.97c2.63-4.84,6-10.18,10.12-16.04c5.3-7.59,9.87-11.38,13.71-11.38c2.39,0,3.59,1.59,3.59,4.78
					c0,1.93-0.55,4.25-1.65,6.96c-4.33,10.66-6.49,18.97-6.49,24.95C790.51,595.62,792.99,598.63,797.95,598.43z"/>
				<path class="st2" d="M820.48,581.8c-3.5,7.15-6.47,10.83-8.91,11.02c-1.14,0.08-2.02-0.3-2.62-1.13
					c-0.61-0.83-0.92-1.84-0.92-3.03c0-1.03,0.2-2.2,0.59-3.51c-3.07,5.11-5.82,7.67-8.26,7.67c-1.14,0-2.01-0.57-2.6-1.72
					c-0.47-0.91-0.71-2-0.71-3.26c0-3.76,1.65-7.63,4.95-11.63c1.06-1.3,2.44-2.4,4.13-3.29c1.69-0.89,3.34-1.33,4.95-1.33
					c1.93,0,3.46,0.63,4.6,1.89c0.27,0.32,0.41,0.63,0.41,0.94c0,0.67-0.35,0.92-1.06,0.77c-0.39-1.42-1.3-2.12-2.71-2.12
					c-1.65,0-3.6,1.17-5.84,3.5c-1.65,1.7-3.09,3.58-4.31,5.64c-1.65,2.77-2.48,5.09-2.48,6.95c0,1.35,0.49,2.02,1.47,2.02
					c2.4,0,5.49-3.63,9.26-10.9c0.79-1.5,1.38-2.47,1.77-2.9c0.63-0.67,1.38-0.97,2.24-0.89c0.2,0,0.59,0.06,1.18,0.18
					s1.02,0.14,1.3,0.06c-0.91,0.91-1.99,2.66-3.24,5.25c-1.18,2.44-1.93,4.37-2.24,5.78c-0.16,0.75-0.24,1.42-0.24,2
					c0,1.02,0.27,1.53,0.83,1.53c1.81,0.08,4.34-3.24,7.61-9.96c0.2-0.4,0.43-0.59,0.71-0.59c0.2,0,0.29,0.12,0.29,0.36
					C820.65,581.33,820.6,581.57,820.48,581.8z"/>
				<path class="st2" d="M836.94,581.86c-3.58,7.2-6.65,10.79-9.2,10.79c-1.06,0-1.89-0.38-2.48-1.15s-0.88-1.7-0.88-2.8
					c0-1.02,0.25-2.2,0.77-3.54c0.35-0.86,0.94-2.03,1.77-3.48c0.94-1.61,1.57-2.77,1.89-3.48c0.12-0.31,0.18-0.59,0.18-0.83
					c0-1.22-1.57-1.87-4.72-1.95l-0.71,1.89c-2.4,6.41-4.78,10.76-7.14,13.04c-0.12,0.08-0.22,0.12-0.29,0.12
					c-0.16,0-0.26-0.1-0.29-0.29c-0.04-0.2,0-0.39,0.12-0.59c2.08-2.71,4.07-6.51,5.96-11.38c1.61-4.21,2.65-7.63,3.13-10.26
					c0.2-1.22,0.73-1.83,1.59-1.83c0.67,0,1.19,0.3,1.56,0.91c0.37,0.61,0.56,1.27,0.56,1.98c0,1.81-1.12,3.48-3.36,5.01
					c2.52,0.12,5.23,0.04,8.14-0.24c0.08,0.12,0.12,0.29,0.12,0.53c0,0.87-0.45,2.2-1.36,4.01c-2.99,5.94-4.48,9.71-4.48,11.33
					c0,0.94,0.37,1.44,1.12,1.48c1.65,0.04,4.09-3.25,7.31-9.85c0.2-0.39,0.41-0.59,0.65-0.59c0.2,0,0.29,0.16,0.29,0.47
					C837.17,581.31,837.09,581.54,836.94,581.86z"/>
				<path class="st2" d="M838.17,587.64c-0.24,0.71-0.35,1.32-0.35,1.83c0,1.18,0.51,1.81,1.53,1.89c2.12,0.16,4.86-3.19,8.2-10.03
					c0.2-0.39,0.41-0.59,0.65-0.59c0.2,0,0.29,0.14,0.29,0.41c0,0.24-0.06,0.47-0.18,0.71c-3.34,7.2-6.43,10.79-9.26,10.79
					c-2.6,0-3.89-1.42-3.89-4.25c0-1.06,0.24-2.2,0.71-3.42l3.78-9.67c0.08-0.2,0.12-0.41,0.12-0.65c0-0.51-0.24-1.1-0.71-1.77
					l3.24-0.06c1.1-0.04,1.65,0.24,1.65,0.83c0,0.2-0.14,0.61-0.41,1.24l-4.72,11.03C838.59,586.48,838.37,587.05,838.17,587.64z
					 M848.97,566.87c-0.12,0.67-0.45,1.24-1,1.71s-1.16,0.71-1.83,0.71c-0.67,0-1.2-0.24-1.59-0.71c-0.39-0.47-0.55-1.04-0.47-1.71
					c0.08-0.67,0.4-1.24,0.97-1.71c0.57-0.47,1.19-0.71,1.86-0.71c0.67,0,1.21,0.24,1.62,0.71
					C848.94,565.64,849.09,566.21,848.97,566.87z"/>
				<path class="st2" d="M869.2,581.85c-1.69,3.37-2.93,5.63-3.72,6.81c-1.93,2.78-3.87,4.17-5.84,4.17c-2.44,0-3.66-1.27-3.66-3.82
					c0-2.12,1.26-5.19,3.78-9.22c0.39-0.63,0.59-1.16,0.59-1.59c0-0.63-0.37-0.82-1.12-0.59c-0.98,0.32-2.2,1.16-3.66,2.54
					c-2.87,2.67-5.6,6.57-8.2,11.68c-0.32,0.59-0.96,0.9-1.95,0.94c-1.26,0.04-2.02,0.14-2.3,0.29c2.2-4.8,4.92-10.3,8.14-16.52
					c0.67-1.26,1.2-2.12,1.59-2.59c0.75-0.83,1.61-1.2,2.59-1.12c0.2,0,0.59,0.06,1.18,0.18s1.02,0.14,1.3,0.06
					c-1.53,0.83-3.91,4.52-7.14,11.09c3.15-3.97,6.51-6.96,10.09-8.97c2.32-1.3,4.03-1.95,5.13-1.95c0.24,0,0.43,0.02,0.59,0.06
					c-2.04,3.76-3.4,6.31-4.07,7.64c-1.73,3.45-2.73,5.96-3.01,7.53c-0.08,0.47-0.12,0.94-0.12,1.41c0,1.02,0.35,1.53,1.06,1.53
					c2.08,0,4.78-3.38,8.08-10.15c0.2-0.39,0.39-0.59,0.59-0.59c0.16,0,0.24,0.14,0.24,0.41
					C869.38,581.36,869.32,581.62,869.2,581.85z"/>
				<path class="st2" d="M891.2,581.8c-3.5,7.15-6.47,10.83-8.91,11.02c-1.14,0.08-2.02-0.3-2.62-1.13
					c-0.61-0.83-0.92-1.84-0.92-3.03c0-1.03,0.2-2.2,0.59-3.51c-3.07,5.11-5.82,7.67-8.26,7.67c-1.14,0-2.01-0.57-2.6-1.72
					c-0.47-0.91-0.71-2-0.71-3.26c0-3.76,1.65-7.63,4.95-11.63c1.06-1.3,2.44-2.4,4.13-3.29c1.69-0.89,3.34-1.33,4.95-1.33
					c1.93,0,3.46,0.63,4.6,1.89c0.27,0.32,0.41,0.63,0.41,0.94c0,0.67-0.35,0.92-1.06,0.77c-0.39-1.42-1.3-2.12-2.71-2.12
					c-1.65,0-3.6,1.17-5.84,3.5c-1.65,1.7-3.09,3.58-4.31,5.64c-1.65,2.77-2.48,5.09-2.48,6.95c0,1.35,0.49,2.02,1.47,2.02
					c2.4,0,5.49-3.63,9.26-10.9c0.79-1.5,1.38-2.47,1.77-2.9c0.63-0.67,1.38-0.97,2.24-0.89c0.2,0,0.59,0.06,1.18,0.18
					s1.02,0.14,1.3,0.06c-0.91,0.91-1.99,2.66-3.24,5.25c-1.18,2.44-1.93,4.37-2.24,5.78c-0.16,0.75-0.24,1.42-0.24,2
					c0,1.02,0.27,1.53,0.83,1.53c1.81,0.08,4.34-3.24,7.61-9.96c0.2-0.4,0.43-0.59,0.71-0.59c0.2,0,0.29,0.12,0.29,0.36
					C891.38,581.33,891.32,581.57,891.2,581.8z"/>
			</g>
		</g>
		<g>
			<g>
				<path class="st2" d="M556.58,624.79v24.63c0,2.1,0.56,3.6,1.69,4.49c1.13,0.92,2.86,1.38,5.2,1.38h0.28v3.15h-0.55
					c-3.26,0-5.77-0.76-7.53-2.29c-1.52-1.29-2.29-3.35-2.29-6.19l-0.04-25.18H556.58z"/>
				<path class="st2" d="M574.31,658.45h-12.14v-3.15h12.14V658.45z"/>
				<path class="st2" d="M584.87,658.45h-12.14v-3.15h12.14V658.45z"/>
				<path class="st2" d="M595.43,658.45h-12.14v-3.15h12.14V658.45z"/>
				<path class="st2" d="M605.99,658.45h-12.14v-3.15h12.14V658.45z"/>
				<path class="st2" d="M615.02,636.85v14.31c0,2.76,2.35,4.14,7.05,4.14h0.55v3.15h-0.32c-2.42,0-4.35-0.29-5.79-0.87
					c-1.26-0.53-2.26-1.23-3-2.13c-0.74,0.89-1.73,1.6-2.99,2.13c-1.45,0.58-3.39,0.87-5.83,0.87h-0.28v-3.15h0.55
					c4.68,0,7.01-1.38,7.01-4.14v-14.31H615.02z M615.06,632.68h-3.74v-3.15h3.74V632.68z"/>
				<path class="st2" d="M631.65,636.97v14.23c0,2.39-0.86,4.2-2.58,5.42c-1.72,1.22-4.18,1.83-7.39,1.83h-0.63v-3.15h0.55
					c4.68,0,7.01-1.37,7.01-4.1v-14.23H631.65z M626.21,665.58h-3.74v-3.15h3.74V665.58z M631.81,665.58h-3.74v-3.15h3.74V665.58z"
					/>
				<path class="st2" d="M646.35,636.42v25.38c0,3.15-0.89,5.4-2.68,6.74c-1.6,1.23-3.65,1.85-6.15,1.85h-1.34l-0.47,0.04
					l-0.79-2.88c0.34,0.03,0.84,0.04,1.5,0.04c0.89,0,1.52-0.04,1.89-0.12c1.29-0.24,2.34-0.72,3.15-1.46
					c1.13-1.05,1.69-2.58,1.69-4.57v-25.02H646.35z"/>
				<path class="st2" d="M653.91,624.79v24.63c0,2.1,0.56,3.6,1.69,4.49c1.13,0.92,2.86,1.38,5.2,1.38h0.28v3.15h-0.55
					c-3.26,0-5.77-0.76-7.53-2.29c-1.52-1.29-2.29-3.35-2.29-6.19l-0.04-25.18H653.91z"/>
				<path class="st2" d="M673.38,636.74c3.42,0,6.02,0.71,7.8,2.13c1.79,1.39,2.68,3.68,2.68,6.86v3.78c0,3.18-0.85,5.48-2.56,6.9
					c-1.68,1.37-3.99,2.05-6.94,2.05h-1.81c-2.02,0-3.9-0.49-5.64-1.46c-0.42,0.26-0.84,0.47-1.26,0.63
					c-1.37,0.55-3.34,0.83-5.91,0.83h-0.24v-3.15h0.51c1.84,0,3.34-0.18,4.49-0.55c-0.74-1.29-1.1-2.75-1.1-4.38v-4.65
					c0-3.07,0.77-5.35,2.33-6.82C667.28,637.46,669.83,636.74,673.38,636.74z M673.58,639.69c-2.44,0-4.2,0.5-5.28,1.5
					c-1.08,1-1.62,2.59-1.62,4.77v3.35c0,2.08,0.54,3.57,1.62,4.49c1.18,1.08,3.07,1.58,5.68,1.5c2.26-0.05,3.91-0.54,4.96-1.46
					c1.08-0.92,1.62-2.43,1.62-4.53v-3.35c0-2.26-0.53-3.88-1.58-4.85C677.92,640.16,676.12,639.69,673.58,639.69z"/>
				<path class="st2" d="M716.41,636.42v16.95c0.97,1.29,3.13,1.93,6.46,1.93h0.55v3.15h-0.28c-2.52,0-4.51-0.29-5.95-0.87
					l-0.79-0.32v4.53c0,3.15-0.89,5.4-2.68,6.74c-1.6,1.23-3.65,1.85-6.15,1.85h-1.34l-0.47,0.04l-0.79-2.88
					c0.34,0.03,0.84,0.04,1.5,0.04c0.89,0,1.52-0.04,1.89-0.12c1.29-0.24,2.34-0.72,3.15-1.46c1.13-1.05,1.69-2.58,1.69-4.57v-25.02
					H716.41z"/>
				<path class="st2" d="M733.99,658.45h-12.14v-3.15h12.14V658.45z"/>
				<path class="st2" d="M744.55,658.45h-12.14v-3.15h12.14V658.45z"/>
				<path class="st2" d="M755.11,658.45h-12.14v-3.15h12.14V658.45z"/>
				<path class="st2" d="M765.67,658.45h-12.14v-3.15h12.14V658.45z"/>
				<path class="st2" d="M774.7,636.97v14.23c0,2.73,2.33,4.1,6.98,4.1h0.55v3.15h-0.63c-2.26,0-4.08-0.28-5.48-0.83
					c-1.21-0.53-2.19-1.25-2.96-2.17c-0.76,0.92-1.75,1.64-2.96,2.17c-1.39,0.55-3.22,0.83-5.48,0.83h-0.63v-3.15h0.55
					c4.68,0,7.01-1.37,7.01-4.1v-14.23H774.7z M772.25,665.58h-3.74v-3.15h3.74V665.58z M777.85,665.58h-3.74v-3.15h3.74V665.58z"/>
				<path class="st2" d="M791.25,636.97v14.23c0,2.73,2.33,4.1,6.98,4.1h0.55v3.15h-0.63c-2.26,0-4.09-0.28-5.48-0.83
					c-1.21-0.53-2.19-1.25-2.96-2.17c-0.76,0.92-1.75,1.64-2.96,2.17c-1.39,0.55-3.22,0.83-5.48,0.83h-0.63v-3.15h0.55
					c4.68,0,7.01-1.37,7.01-4.1v-14.23H791.25z M788.8,665.58h-3.74v-3.15h3.74V665.58z M794.4,665.58h-3.74v-3.15h3.74V665.58z"/>
				<path class="st2" d="M807.8,636.85v14.31c0,2.68-1.13,4.66-3.39,5.95c-1.6,0.89-3.93,1.34-6.98,1.34h-0.24v-3.15h0.55
					c4.68,0,7.01-1.38,7.01-4.14v-14.31H807.8z M807.84,632.68h-3.74v-3.15h3.74V632.68z"/>
				<path class="st2" d="M837.83,658.45h-6.46v3.27c0,3.1-0.88,5.32-2.64,6.66c-1.63,1.23-4.23,1.85-7.8,1.85l-0.83-2.8
					c0.18,0.03,0.43,0.04,0.75,0.04h0.79c2.15,0,3.8-0.53,4.93-1.58s1.7-2.55,1.7-4.49v-2.96H821c-2.89,0-4.94-0.53-6.15-1.58
					c-1.63-1.42-2.44-3.34-2.44-5.75c0-9.56,3.44-14.34,10.33-14.34h8.63v18.52h6.46V658.45z M828.25,639.73h-4.38
					c-1.92,0-3.32,0.28-4.22,0.83c-2.76,1.79-4.14,5.12-4.14,10.01c0,1.52,0.59,2.75,1.77,3.67c0.87,0.71,2.26,1.06,4.18,1.06h6.78
					V639.73z"/>
				<path class="st2" d="M846.66,624.79l-0.04,25.18c0,2.81-0.75,4.87-2.25,6.19c-1.79,1.52-4.31,2.29-7.57,2.29h-0.55v-3.15h0.28
					c2.36,0,4.11-0.46,5.24-1.38c1.1-0.92,1.66-2.42,1.66-4.49v-24.63H846.66z"/>
			</g>
		</g>
	</g>
</g>
</svg>
