<?xml version="1.0" encoding="utf-8"?>
<!-- Generator: Adobe Illustrator 26.0.1, SVG Export Plug-In . SVG Version: 6.00 Build 0)  -->
<svg version="1.1" id="Layer_1" xmlns="http://www.w3.org/2000/svg" xmlns:xlink="http://www.w3.org/1999/xlink" x="0px" y="0px"
	 viewBox="0 0 1400 900" style="enable-background:new 0 0 1400 900;" xml:space="preserve">
<style type="text/css">
	.st0{fill:#0097B2;}
	.st1{opacity:0.4;}
	.st2{fill:#002B60;}
</style>
<g>
	<g>
		<path class="st0" d="M702.89,576.4l-0.03,1.01c0.12,1.84,1.26,5.77,8.46,8.02h-22.69c0,0,7.79-1.16,9.88-8.99l0-0.08l2.21-55.53
			l0.97-20.28l1.2-24.68l7.75-15.65h4.37l5.94,11.44l9.03,19.26l35.52,71.03l45.32-101.73h20.29c-11.44,3.61-9.03,12.04-9.03,12.04
			l3.31,101.43c0,7.22,10.23,12.04,10.23,12.04h-30.7c9.93-3.31,9.33-11.74,9.33-11.74l-4.21-104.14l-49.36,110.16l-38.53-77.65
			l-9.03-16.85l-6.62-13.85l-0.6,24.08L702.89,576.4z"/>
		<g>
			<g class="st1">
				<path class="st2" d="M674.33,515.2c0,0-0.19-0.03-0.55-0.07c5.05-10.9,14.3-33.15,18.55-57.93c0,0,67-20,88-96c0,0,15-44-13-55
					c0,0-35-15-60,53c0,0-12.05,27.5-21.03,92.25c0,0-47.97,17.75-62.97-20.25c0,0-10-48,42-67c0,0,3-6-11,0c0,0-55,17-45,64
					c0,0,6,40,73,32c0,0-8.93,37.45-16.68,54.3c-16.86-0.7-54.92,1-83.94,26.7c0,0-19.91,14.94-12.81,34.27
					c1.66,4.51,5.04,10.12,9.27,12.41c12.65,6.82,55.24,14.33,90.18-59.18c0,0,60.59-2.84,97.68,17.77
					c9.01,5.01,16.37,12.61,20.67,21.98c4.12,9,7.12,21.75,2.62,36.75c0,0,16.5-5.5,9.5-31.5
					C795.04,559.63,779.83,522.7,674.33,515.2z M760.15,319.96c4.99-1.04,10.01,1.81,11.61,6.66c1.67,5.09,2.62,13.87-0.43,28.59
					c0,0-16.2,75.46-75.6,92.73C695.73,447.93,724.97,327.25,760.15,319.96z M605.33,581.2c-16,4-21.5-0.25-25-5.5
					c-3.47-5.21-2.22-10.63,0.91-16.05c19.59-33.95,76.65-30.95,76.65-30.95C639.43,572.2,605.33,581.2,605.33,581.2z"/>
			</g>
			<g>
				<g>
					<path class="st2" d="M671.33,510.2c0,0-0.19-0.03-0.55-0.07c5.05-10.9,14.3-33.15,18.55-57.93c0,0,67-20,88-96c0,0,15-44-13-55
						c0,0-35-15-60,53c0,0-12.05,27.5-21.03,92.25c0,0-47.97,17.75-62.97-20.25c0,0-10-48,42-67c0,0,3-6-11,0c0,0-55,17-45,64
						c0,0,6,40,73,32c0,0-8.93,37.45-16.68,54.3c-16.86-0.7-54.92,1-83.94,26.7c0,0-19.91,14.94-12.81,34.27
						c1.66,4.51,5.04,10.12,9.27,12.41c12.65,6.82,55.24,14.33,90.18-59.18c0,0,60.59-2.84,97.68,17.77
						c9.01,5.01,16.37,12.61,20.67,21.98c4.12,9,7.12,21.75,2.62,36.75c0,0,16.5-5.5,9.5-31.5
						C792.04,554.63,776.83,517.7,671.33,510.2z M757.15,314.96c4.99-1.04,10.01,1.81,11.61,6.66c1.67,5.09,2.62,13.87-0.43,28.59
						c0,0-16.2,75.46-75.6,92.73C692.73,442.93,721.97,322.25,757.15,314.96z M602.33,576.2c-16,4-21.5-0.25-25-5.5
						c-3.47-5.21-2.22-10.63,0.91-16.05c19.59-33.95,76.65-30.95,76.65-30.95C636.43,567.2,602.33,576.2,602.33,576.2z"/>
				</g>
			</g>
		</g>
	</g>
</g>
</svg>
